<svg version="1.0" xmlns="http://www.w3.org/2000/svg" viewBox="128.99 262.23 766.31 512.06"><g fill="#fff"><path d="M289.5 263c.3.5 3 1 5.8 1 2.9 0 12.2.7 20.7 1.5 8.5.7 19.3 1.7 24 2s11 .8 14 1c10.7 1 62.9 3.5 94.5 4.5 17.6.6 43 1.5 56.5 2 23.3.9 136.5 2.5 233.5 3.4 46.1.4 52.6.9 70.9 5.1 43 10 69.4 42.6 64.6 79.9-2.9 22.5-11.6 47.9-32 94.1-12.5 28-18.1 37.7-27.9 47.8-18.8 19.6-49.3 35.9-90.8 48.7l-10.2 3.1 2.6 4.2c1.4 2.3 7.3 11.6 13.1 20.7 27.7 43.8 67.1 106.1 72 114.1 2.1 3.5 8 12.8 13 20.6l9.1 14.3h-17.7l-13.9-21.5c-7.6-11.8-21.2-33.2-30.3-47.6-9.1-14.3-24.7-38.8-34.7-54.5-10-15.8-19.1-30-20.2-31.8-1-1.7-5.3-8.5-9.5-15.1s-7.6-12.3-7.6-12.7c0-.8.1-.8 18.2-5.3 27.3-6.6 52.7-17.2 72.1-30.1 23.4-15.6 32.2-27.9 51.6-72 18.5-42.3 24.4-60.2 25.7-78.4 1.4-18.8-3.6-32.3-16.9-45.5-12.5-12.4-29.1-20-52.7-24.2-10-1.7-21.7-1.8-253.5-1.8-234.7 0-243.2.1-247.2 1.9-7.9 3.5-9.4 11.2-3 16 2.6 1.9 4.8 2.1 47.5 3.2 24.6.7 63.9 1.5 87.5 1.9 23.5.4 42.7.9 42.7 1.2 0 .2-2 4.3-4.4 9.2l-4.5 8.8-27.8.6c-27.6.7-44.7 1.4-99.3 4.2-15.7.8-43.8 2.2-62.5 3.1-28.4 1.3-34.7 1.8-38.2 3.4-4.5 2-6.4 4.6-6.5 9.1-.1 4 2.5 6.6 8 7.8 5.1 1.1 41.8 1.8 143.2 2.7 36 .4 65.6.8 65.8.9.2.2-1.9 4.8-4.7 10.2l-5 10-32.8.7c-18 .3-49.2 1.3-69.3 2.1s-38.5 1.5-40.9 1.5c-7.5 0-3.9 1 7.5 2 18.2 1.6 36.4 4.2 36.4 5.1 0 .5-.8.9-1.7.9-5 0-72.7 4.1-73 4.4-.2.2 3.4.6 7.9 1 4.6.4 17.1 1.8 27.8 3.1s20.9 2.6 22.5 2.8c4.9.5-53.8 4-87 5.2-8.8.3-18.5.8-21.5 1-3 .3-12.9.7-22 1.1-9.1.3-16.8.8-17.1 1s-7.6.4-16.1.5c-8.5 0-16 .4-16.7.8-1.3.9 9.1 1.6 43.9 3.1 12.4.5 26.3 1.2 31 1.5 16.6 1 102.2 2.5 150.8 2.5 27 0 49.2.3 49.2.6s-3.6 8-7.9 17l-8 16.4h-4.8c-12.3 0-78.3 2.1-82.2 2.6-3.3.4-5.4 1.5-7.8 3.9-5.2 5.2-4.4 9.9 2.3 13.3 2.5 1.3 33 2.5 118.9 4.7 97.8 2.5 160.9 4.5 160.3 5.1-.2.1-6.4.7-13.8 1.3-13.8 1.1-17.1 1.3-43.5 3.1-18.9 1.2-54.3 3.8-61.5 4.4-3 .3-9.1.8-13.5 1.1s-10.9.8-14.5 1c-3.6.3-16.2 1.2-28 2-11.8.9-37.2 2.6-56.5 4-19.2 1.4-48.5 3.4-65 4.6-16.5 1.1-30.2 2.3-30.4 2.5s2.9.4 7 .4c9 0 49.1 1.9 53.8 2.6 1.8.3 3.1.7 2.9.9-.5.5-19.7 2.1-34.8 3-5.8.3-18.1.9-27.5 1.5-9.3.5-23.3 1.2-31 1.5-45.6 1.7-46.4 1.8-51.5 6.1-3.7 3.2-4.1 8.3-.9 11.3 4.3 3.9 7.8 4.1 95.3 4.1 46.5 0 84.6.2 84.6.5s-2 4.6-4.5 9.5l-4.5 9h-29.7c-16.3 0-29.4.2-29.2.4.2.3 3.1.7 6.4 1.1 19 2 29.5 3.6 29.5 4.5 0 .7-23.4 2.6-44 3.5-6.9.3-19.5 1-28 1.5s-23.8 1.2-34 1.6c-19.2.7-35.9 2-28.5 2.3 2.2.1 10.3.6 18 1.1 23.8 1.6 65.6 3 98.3 3.1 19.9 0 31.2.4 31.2 1.1 0 .5-9.7 21-21.6 45.5-11.8 24.5-21.3 44.7-21 45 1.1 1.2 34.1-13.9 94.1-42.9 42.2-20.5 78.3-37.8 78.7-37.8.2 0 .4 2.8.5 6.3.1 5.6 3.2 16.4 5.4 19.3.6.7-3.5 2.9-12.9 6.7-7.5 3.1-22 9.3-32.2 13.8-45.6 20.1-73.1 32-91.5 39.9-16.1 6.8-28.5 12.2-38.4 16.7-8.2 3.7-6.9 2.3 2.2-2.5 32-16.5 43.6-22.6 53.7-27.9 6.3-3.3 21-10.9 32.5-16.8 21.4-10.9 54.8-29.6 54.1-30.2-.1-.2-5.4 2.1-11.7 5.1-11.9 5.6-27.5 12.8-44.1 20.2-5.4 2.4-14.4 6.5-20 9-5.7 2.5-16.1 7-23.3 10-7.1 3-14.6 6.2-16.5 7.1-7 3.2-32.5 13.3-33.7 13.3s-7.2 11.9-22.3 44.5c-4.6 9.9-8.5 18.2-8.7 18.4-.4.5-15.6 3.1-16 2.7-.2-.1 1.5-4.8 3.8-10.2 10-24 49.5-138.2 48.6-140.7-.2-.6-1 .7-1.9 2.9-1.5 3.6-20 42.2-56.5 117.9-18.9 39-25 51.9-25.7 54.2s-1.7 2.3 20.9-1.3c59.8-9.5 144-22.7 159-24.9 9.9-1.4 19-2.8 20.3-3 1.7-.4 3.7-3.6 8.6-13.4l6.5-12.8 10.8-2.1c5.9-1.1 19.1-3.9 29.3-6.2 10.2-2.2 34-7.5 53-11.6s35-7.7 35.5-7.9c2.1-1-32.8 3.1-123.5 14.6-19.1 2.4-19.5 2.3-8-1.5 5.8-1.8 21.5-6.8 35-11s30.5-9.5 37.8-11.8c7.2-2.3 13.2-4.5 13.2-5s-.8-.7-1.7-.4c-2.2.6-27.5 4.7-50.8 8.2-9.3 1.3-24.6 3.9-33.8 5.6-9.2 1.6-17 2.9-17.2 2.7-.2-.3 8.7-4.3 19.8-9.1s30.1-13 42.2-18.3c31-13.7 74.2-31.5 76.2-31.5.5 0 6.2-2 12.7-4.5 11.5-4.3 12.3-4.5 22.8-4.5 10 0 11 .2 13 2.2 1.1 1.3 16.6 25.2 34.5 53.3 17.8 28 35.5 55.8 39.3 61.7l6.9 10.8h96.6c53.1 0 96.5-.3 96.5-.6 0-1.4.7-.2-82.3-130.7-18.1-28.5-32.7-52-32.5-52.2.1-.2 5.5-2.4 11.8-4.8 39.6-15.5 68.3-34.6 84-55.9 6.7-8.9 14.2-23.3 23.3-44.3 25.5-58.9 33.1-84.1 33-108.5-.1-10.5-.5-13.9-2.7-21.3-4.7-15.7-11.4-26.5-23.8-38.3-16-15.1-34.7-23.7-65.3-29.7l-11-2.1-251.8-.3c-171.5-.2-251.6 0-251.2.7m433.2 102.5c10.5 3 14.5 9.7 12.4 20.6-.7 3.2-3.4 11.5-6.2 18.6-12.3 31.3-22.8 44.3-40.7 50.3-13.8 4.6-22.6 5-96.8 5-38.2 0-69.4-.4-69.4-.9s4.2-9.6 9.4-20.2c10.3-21.1 15.6-35.3 15.6-41.7 0-6.8-2-13.9-5.1-18.2-3.2-4.4-11-9.9-18.6-12.9l-4.8-2 78.5-.3c100.7-.4 119-.1 125.7 1.7M660.8 485c13 3.3 25.7 19.1 28.3 35.1 1.3 7.7.6 12.8-2.5 19.4-4.3 9.3-3.2 8.7-59.2 34.5l-29.1 13.4-1.2 4.4c-1.6 6.1-8.6 13.2-16.4 16.8-5.1 2.3-7.8 2.9-15.1 3.1s-9.3.6-11 2.2c-3.3 3.1-17.2 9.3-22 9.8-2.4.3-5.2 0-6.3-.6-1.7-.9-2.2-.7-2.6.9-.7 2.7-8.9 7.6-16.9 10.2l-6.8 2.2-5.8-2.8c-9.2-4.4-18-12.2-21.9-19.2-8.4-15.4-8.2-37 .3-45.1 3.7-3.4 12.8-7.3 17.3-7.3 2.3 0 3 .5 3.4 2.7.4 2.3-.1 3.4-2.8 5.9-4 3.6-5 7.7-4.3 17.7.8 10.3 3.9 17.6 10.6 24.9 3.2 3.4 7.1 6.9 8.7 8 2.7 1.6 2.8 1.8.8 1.8-3.3 0-10.6-3.5-14.5-6.9-3.1-2.7-3.7-2.9-4.8-1.6-.7.8-2.3 1.5-3.7 1.5-4.1 0-2.4 2.9 6.2 10.2 7.4 6.4 8.3 6.8 12 6.5 5.1-.5 12.8-4.2 16.5-7.8 1.6-1.6 3.3-2.9 3.9-2.9 2.1 0 1-1.8-1.6-2.8-5-1.7-14.3-9.5-17.7-14.6-5.4-8.1-6.9-13.7-7.4-27-.5-13.2.4-17.8 4.4-22.6 3.5-4.1 10.5-8 17.1-9.6 5.2-1.2 5.6-1.2 6 .7.7 2.7 2 2.4 2.8-.9 1.3-5.3 5.4-10 12.2-14.1 9.6-5.6 14.3-6.7 21.5-4.9l5.6 1.4 5.4-3.1c2.9-1.7 14.5-8.1 25.8-14.2s25.7-13.9 32-17.3c17.6-9.6 22.1-10.7 32.8-8M470 533.5c-5.6 9-14.5 24.5-19.9 34.2-8.5 15.3-10.5 18.2-14.2 20.7-2.4 1.6-7.5 5.1-11.3 7.8l-6.9 5 2.8-4.9c2.6-4.6 58.3-79.3 59.1-79.3.2 0-4.1 7.4-9.6 16.5m4 97.3c0 .5-1.7 1.6-3.7 2.7-17.9 8.6-100.1 44.5-130.8 57-9.9 4-26.3 10.9-36.4 15.4s-18.6 8-18.8 7.8c-.6-.6 84.4-41.1 117.2-55.9 6.1-2.7 21.8-9 35-14s26.7-10.1 30-11.4c6.7-2.6 7.5-2.7 7.5-1.6"/><path d="M645.8 491.6c-3.1 1.6-4.8 4.3-4.8 7.5 0 2.1.1 2.1 2.1-.5 2.5-3.2 6.9-5.6 10.4-5.6 1.4 0 4.6 1 7.2 2.2 16.2 7.6 25.1 31.4 15.4 41.2-3.8 3.8-7.7 3.7-14.1-.4-6.5-4.2-10.7-9-14.2-16.5-3.1-6.7-3.9-14.6-1.8-18.4.6-1.3.9-2.5.6-2.8-.9-.9-4.4 5.7-5 9.8-.3 2.1-1 3.9-1.5 3.9-2.7 0-4.4-6.8-3.1-12.5.5-2.2.8-4.1.6-4.2-.1-.2-4.1 1.8-8.7 4.3-16.5 9-63.1 33.5-66.6 34.9-4.8 2-5 1.9-2.3-1 3-3.2 1-3.3-4.5-.2-7.9 4.5-10.6 12.4-8.8 25.5 3.4 23.2 24.6 40.2 41.1 32.8 5-2.3 5.6-4.1 1-3.2-4.9 1-2.5-.6 9.7-6.2 14-6.4 72.6-34.9 73.3-35.7.3-.3-.8-.5-2.5-.5-5 0-13-2.9-17.6-6.4l-4.3-3.3-4.4 3.9c-4.3 3.8-38.7 21.5-62.8 32.2-11.1 5-11.2 5-11.2 3.7 0-.9 14.3-8.6 50.2-27 22.5-11.6 25.8-13.4 25.8-14.2 0-.3-1.1-1.6-2.4-2.8l-2.4-2.3-8.9 4.7c-4.8 2.6-14 7.5-20.3 11-21.8 11.9-46.1 24.5-47.1 24.5-2 0-6.2-11.2-6.7-18.1-.5-6.7-.4-6.9 2.2-7.9 2.8-1 59.9-30.8 69.3-36.2 2.9-1.6 5.7-2.7 6.2-2.4.4.3 1.1 2.3 1.4 4.5 1.4 10.6 12.3 24.5 23.4 29.8 5.4 2.5 14.7 3.1 18.5 1.1 3.3-1.7 5.1-6.8 5-14.8 0-8.5-2.1-15.1-7.1-22.3-7.5-10.9-21.9-16.7-30.3-12.1m-125.5 62.1c-3.7 3.3-5.3 7.8-5.3 14.7 0 14.5 7.9 29.5 20.5 38.9 3.9 2.9 3.9 2.9 1 2.3-4.8-1.2-12.9-5.4-15.3-7.9l-2.2-2.4-5 2.5-4.9 2.4 4.2 4.3c5.9 6.1 14.8 12.5 17.3 12.5 5.3 0 18.9-7 18.1-9.3-.2-.7.3-1.8 1.2-2.4 1.8-1.4 1.6-1.6-9.7-11.1-7-5.8-12.7-17.3-14.8-29.7-.9-5-1.4-10.9-1.1-13.3.2-2.3.2-4.2-.2-4.2s-2.1 1.2-3.8 2.7"/><path d="M548 587c-1.4 1.1-3.8 2.2-5.4 2.6l-2.8.6 4.3 4.4c2.4 2.5 6.1 5.6 8.1 7.1 4 2.7 4.6 3.9 2.6 4.6-.7.2-.6.3.3.2.8-.1 2.4.4 3.4 1.1 1 .8 2.9 1.4 4.2 1.4 3.3 0 14-3.8 19.3-6.9l4.5-2.6-8-.5c-9-.6-15.3-3.4-23-10.2-2.4-2.1-4.5-3.8-4.7-3.8-.1 0-1.4.9-2.8 2M221.7 291.2c-5.8 1.6-9.7 5.8-9.7 10.5 0 7.3 5 9.3 22.9 9.3 10.2 0 13.4-.4 16.8-1.9 4.2-2 7.3-6.1 7.3-9.9 0-3.3-3.7-6.9-8.4-8.1-5.4-1.3-23.6-1.3-28.9.1m-64.3 52.7c-4.7 2.2-7.4 5.4-7.4 9.1 0 6.7 7.5 10 22.5 10 14.7 0 22.2-3.2 23.9-10.3.8-3.5-.7-6.3-4.7-8.7-4.6-2.9-28.2-2.9-34.3-.1M238 460.5c-.8.2-3.2.6-5.2 1-8.9 1.4-12.9 10.7-6.8 15.9 3.8 3.1 9.3 4 22.8 3.4 11.6-.5 15.5-1.8 19.1-6.4 4.2-5.3 1.3-11.3-6.3-13.3-4-1-19.7-1.4-23.6-.6"/></g></svg>