<svg width="420" height="420" viewBox="0 0 420 420" fill="none" xmlns="http://www.w3.org/2000/svg">
<rect width="420" height="420" fill="black"/>
<path d="M150.455 197.5H160.795L161.125 197.83V202.67L160.795 203H150.455L150.125 202.67V197.83L150.455 197.5ZM139.455 197.5H144.295L144.625 197.83V202.67L144.295 203L144.625 203.33L144.955 203H149.795L150.125 203.33V208.17L149.795 208.5H144.955L144.625 208.17L144.295 208.5L144.625 208.83V224.67L144.295 225H139.455L139.125 224.67V197.83L139.455 197.5ZM161.455 203H166.295L166.625 203.33V210.92L166.295 211.25H161.455L161.125 210.92V203.33L161.455 203ZM173.026 197.5H188.866L189.196 197.83V202.67L188.866 203H173.026L172.696 202.67V197.83L173.026 197.5ZM189.526 203H194.366L194.696 203.33V213.67L194.366 214H173.026L172.696 213.67L172.366 214L172.696 214.33V219.17L172.366 219.5H167.526L167.196 219.17V203.33L167.526 203H172.366L172.696 203.33V208.17L172.366 208.5L172.696 208.83L173.026 208.5H188.866L189.196 208.83L189.526 208.5L189.196 208.17V203.33L189.526 203ZM173.026 219.5H191.616L191.946 219.83V224.67L191.616 225H173.026L172.696 224.67V219.83L173.026 219.5ZM195.598 186.5H211.438L211.768 186.83V219.17L211.438 219.5L211.768 219.83L212.098 219.5H216.938L217.268 219.83V224.67L216.938 225H206.598L206.268 224.67V192.33L206.598 192L206.268 191.67L205.938 192H195.598L195.268 191.67V186.83L195.598 186.5ZM217.598 214H222.438L222.768 214.33V219.17L222.438 219.5H217.598L217.268 219.17V214.33L217.598 214ZM245.009 203H226.419L226.089 202.67V197.83L226.419 197.5H245.009L245.339 197.83V202.67L245.009 203ZM228.839 224.67V219.83L229.169 219.5H245.009L245.339 219.83L245.669 219.5L245.339 219.17V214.33L245.669 214L245.339 213.67L245.009 214H229.169L228.839 213.67V208.83L229.169 208.5H245.009L245.339 208.83L245.669 208.5L245.339 208.17V203.33L245.669 203H250.509L250.839 203.33V224.67L250.509 225H229.169L228.839 224.67ZM228.839 214.33V219.17L228.509 219.5H223.669L223.339 219.17V214.33L223.669 214H228.509L228.839 214.33ZM273.741 197.5H278.581L278.911 197.83V230.17L278.581 230.5H273.741L273.411 230.17V225.33L273.741 225L273.411 224.67L273.081 225H257.241L256.911 224.67V219.83L257.241 219.5H273.081L273.411 219.83L273.741 219.5L273.411 219.17V197.83L273.741 197.5ZM251.741 197.5H256.581L256.911 197.83V219.17L256.581 219.5H251.741L251.411 219.17V197.83L251.741 197.5ZM257.241 230.5H273.081L273.411 230.83V235.67L273.081 236H257.241L256.911 235.67V230.83L257.241 230.5Z" fill="#FDFFB6"/>
</svg>
